Coordinates
version=1
nRows=30
nColumns=23
inDegrees=yes

Units are S.I. units (second, meters, Newtons, ...)
If the header above contains a line with 'inDegrees', this indicates whether rotational values are in degrees (yes) or radians (no).

endheader
time	pelvis_tilt	pelvis_list	pelvis_rotation	pelvis_tx	pelvis_ty	pelvis_tz	hip_flexion_r	hip_adduction_r	hip_rotation_r	knee_angle_r	knee_angle_r_beta	ankle_angle_r	subtalar_angle_r	mtp_angle_r	hip_flexion_l	hip_adduction_l	hip_rotation_l	knee_angle_l	knee_angle_l_beta	ankle_angle_l	subtalar_angle_l	mtp_angle_l
      0.00000000	    -14.49648553	      0.92494285	     -2.75941719	      1.94926916	      1.00177365	      1.05835918	     61.65423815	      8.07297754	      7.25286060	     89.03505725	      1.55395490	     13.45412387	    -24.70852278	      0.00000000	     -8.83436010	      5.45183500	     -5.95874012	     15.48453153	      0.27025606	    -11.94727951	      2.10543639	      0.00000000
      0.00666667	    -14.78666315	      1.41488175	     -3.05837038	      1.95078048	      1.00367681	      1.05876855	     61.95745517	      7.89163058	      7.58471736	     85.58142753	      1.49367769	     13.98564675	    -24.96450547	      0.00000000	     -8.84890455	      5.72794401	     -7.49822522	     16.46186674	      0.28731378	    -14.73639322	      1.91130355	      0.00000000
      0.01333333	    -14.75488950	      1.40011288	     -3.39532694	      1.95245003	      1.00618378	      1.05939878	     61.61643144	      8.15417250	      7.66830209	     81.77671261	      1.42727289	     14.26240717	    -25.74951393	      0.00000000	     -9.12522197	      5.36135800	     -9.49617228	     17.72924188	      0.30943364	    -16.99191720	      2.37807072	      0.00000000
      0.02000000	    -14.64513607	      1.29226356	     -3.53169804	      1.95422372	      1.00867311	      1.05977561	     61.02072597	      8.21550317	      7.53941355	     77.87343114	      1.35914777	     14.86061293	    -25.93535521	      0.00000000	     -9.52143763	      4.90625614	    -10.93291501	     18.97917301	      0.33124906	    -19.04058736	      2.50270218	      0.00000000
      0.02666667	    -14.81261400	      1.49570704	     -3.66804006	      1.95561928	      1.01020436	      1.06021972	     60.68072309	      8.07778167	      7.66324903	     74.03908736	      1.29222585	     15.53772763	    -25.73941566	      0.00000000	     -9.52914900	      4.81672574	    -11.82272073	     20.37822564	      0.35566713	    -20.79141292	      1.93591470	      0.00000000
      0.03333333	    -14.11198209	      0.86917661	     -3.59875314	      1.95743840	      1.01323719	      1.06054676	     59.03298829	      8.28627982	      7.14242490	     69.78718903	      1.21801622	     15.95706470	    -25.58525854	      0.00000000	    -10.43615157	      3.83733662	    -12.45968769	     21.99523130	      0.38388921	    -21.62857930	      1.86666518	      0.00000000
      0.04000000	    -14.04946550	      0.86866232	     -3.58763885	      1.95857401	      1.01450311	      1.06102549	     58.14354942	      8.16695600	      7.13100085	     65.77845023	      1.14805053	     16.48467072	    -24.83560829	      0.00000000	    -10.46140938	      3.59186327	    -12.36006277	     23.89260567	      0.41700464	    -22.07177697	      0.98364500	      0.00000000
      0.04666667	    -13.33904237	      0.43162475	     -3.43488342	      1.95991125	      1.01661625	      1.06124183	     56.32287429	      8.11997834	      6.67014402	     61.56402097	      1.07449487	     17.01150979	    -23.61008795	      0.00000000	    -11.13822844	      2.99972047	    -11.69854953	     25.88798599	      0.45183059	    -22.02860430	      0.09395373	      0.00000000
      0.05333333	    -13.01991835	      0.37479878	     -3.28906064	      1.96070359	      1.01749886	      1.06140485	     54.94163735	      7.84941230	      6.50184656	     57.52973996	      1.00408338	     17.53497230	    -21.86448845	      0.00000000	    -11.15224281	      2.90928717	    -10.43558734	     28.26054722	      0.49323960	    -21.54157841	     -1.18554476	      0.00000000
      0.06000000	    -12.76741534	      0.39373637	     -3.16887689	      1.96113119	      1.01783162	      1.06145962	     53.56873202	      7.54817500	      6.43023976	     53.54841649	      0.93459618	     18.06754265	    -19.69860115	      0.00000000	    -10.89670436	      3.01698618	     -8.83258906	     30.96292305	      0.54040495	    -20.78588181	     -2.70174096	      0.00000000
      0.06666667	    -12.38542021	      0.44415189	     -3.01474102	      1.96144841	      1.01786560	      1.06119926	     52.02283206	      7.11873117	      6.23633135	     49.71916547	      0.86776314	     18.69425767	    -16.83043454	      0.00000000	    -10.63877149	      3.32949141	     -6.86506990	     33.87441871	      0.59122014	    -19.90834117	     -4.41237210	      0.00000000
      0.07333333	    -11.96256151	      0.56962795	     -2.89319508	      1.96159346	      1.01742776	      1.06066886	     50.43400656	      6.60166111	      5.99535344	     46.10757303	      0.80472896	     19.41889646	    -13.33085710	      0.00000000	    -10.27809231	      3.86553705	     -4.81505589	     37.02706752	      0.64624424	    -19.02406547	     -6.22919859	      0.00000000
      0.08000000	    -11.71728979	      0.73172618	     -2.81641495	      1.96148687	      1.01619295	      1.06001363	     49.02889155	      6.16322336	      5.94425158	     42.70117479	      0.74527609	     19.80765870	    -10.16465600	      0.00000000	     -9.53407566	      4.47893438	     -3.01322860	     40.52519242	      0.70729804	    -18.14249554	     -7.86621567	      0.00000000
      0.08666667	    -11.29273690	      0.81467009	     -2.80366168	      1.96132686	      1.01462669	      1.05912809	     47.48661887	      5.77006959	      5.71449892	     39.66167218	      0.69222677	     20.21607667	     -6.45810446	      0.00000000	     -8.85584448	      5.11320911	     -1.41855709	     44.23532768	      0.77205211	    -17.44444664	     -9.45272723	      0.00000000
      0.09333333	    -11.00825897	      1.00754384	     -3.19632072	      1.96075784	      1.01224208	      1.05889614	     46.10532158	      5.88052367	      6.58338309	     36.88656128	      0.64379194	     20.02854445	     -4.28477849	      0.00000000	     -7.89584064	      5.85273678	     -0.59413583	     48.09761741	      0.83946179	    -16.80214066	    -10.66187417	      0.00000000
      0.10000000	    -10.40980883	      0.61696020	     -3.05553926	      1.96083240	      1.01010617	      1.05748779	     44.43091032	      5.64712877	      5.54845799	     34.55196155	      0.60304549	     19.93440575	     -0.58174775	      0.00000000	     -7.19969569	      5.88138556	      0.32343244	     52.15228877	      0.91022915	    -16.45671892	    -11.84334538	      0.00000000
      0.10666667	    -10.03656903	      0.48648264	     -3.48447339	      1.96023743	      1.00689769	      1.05705227	     43.14374535	      5.96621141	      5.99100837	     32.74312524	      0.57147534	     19.13505473	      1.08935194	      0.00000000	     -6.12136181	      6.15604320	      0.41653661	     56.28506550	      0.98235971	    -16.20226891	    -12.92987341	      0.00000000
      0.11333333	     -9.52732881	     -0.08450535	     -3.74068269	      1.95988348	      1.00369264	      1.05637180	     41.74221769	      6.43666979	      5.70395532	     31.36486454	      0.54742016	     17.98021342	      2.50397917	      0.00000000	     -5.13122942	      5.79321001	      0.28679312	     60.51180246	      1.05613019	    -16.05448743	    -13.63200448	      0.00000000
      0.12000000	     -8.98432351	     -0.61245133	     -4.27270088	      1.95927723	      1.00000646	      1.05615537	     40.52379413	      7.09167119	      5.62050059	     30.73781489	      0.53647607	     16.48500164	      3.36430387	      0.00000000	     -4.11467917	      5.39232875	     -0.29441883	     64.71231732	      1.12944300	    -16.00911637	    -14.53477659	      0.00000000
      0.12666667	     -8.41490413	     -1.30588232	     -4.83342404	      1.95851073	      0.99601325	      1.05601917	     39.44708755	      7.90267306	      5.35474903	     30.78981214	      0.53738360	     14.70084960	      3.62391233	      0.00000000	     -3.07271382	      4.69413024	     -1.06577663	     68.93161938	      1.20308372	    -15.96441886	    -15.39785374	      0.00000000
      0.13333333	     -7.88046395	     -2.25690580	     -5.49637035	      1.95746897	      0.99184597	      1.05638737	     38.39136377	      9.19189909	      5.55640139	     31.17872609	      0.54417143	     12.45816605	      2.05049757	      0.00000000	     -1.95097251	      3.48606338	     -2.13114221	     73.18324744	      1.27728863	    -15.77955943	    -15.86488749	      0.00000000
      0.14000000	     -7.46248016	     -3.11304732	     -6.13703118	      1.95625630	      0.98715631	      1.05659390	     37.76517482	     10.22075225	      5.13519703	     32.46918460	      0.56669418	     10.80690425	      1.43802052	      0.00000000	     -0.66387673	      2.34269786	     -3.09281868	     77.36928857	      1.35034883	    -15.71016401	    -16.83476977	      0.00000000
      0.14666667	     -7.46875310	     -3.70999793	     -7.08336571	      1.95427311	      0.98151352	      1.05750212	     37.73889626	     11.47883637	      5.72990809	     34.31649407	      0.59893581	      9.30539791	     -0.80593216	      0.00000000	      1.20039405	      1.29427732	     -4.31036742	     81.59151052	      1.42404050	    -15.39908976	    -17.56884106	      0.00000000
      0.15333333	     -7.42131927	     -4.43930749	     -7.90427820	      1.95228651	      0.97599248	      1.05819797	     37.70237281	     12.66623174	      5.80107712	     36.53444247	      0.63764631	      8.62431411	     -2.17351929	      0.00000000	      3.01291188	      0.00680500	     -5.33318686	     85.70367362	      1.49581129	    -15.01200825	    -18.35345125	      0.00000000
      0.16000000	     -7.56598996	     -4.96602096	     -8.85550451	      1.94982626	      0.97017760	      1.05915201	     37.91821920	     13.85913971	      6.27393864	     39.05894225	      0.68170714	      8.73622212	     -3.58668509	      0.00000000	      5.11687575	     -1.17819732	     -6.35766645	     89.71546944	      1.56583033	    -14.55004340	    -19.21812949	      0.00000000
      0.16666667	     -7.28529364	     -5.90889895	     -9.58688419	      1.94762599	      0.96548450	      1.05974938	     37.44359070	     15.16720538	      6.29095324	     41.37303654	      0.72209571	      9.61570057	     -4.17310020	      0.00000000	      6.69280955	     -2.85438952	     -7.07906952	     93.50235947	      1.63192403	    -14.01607826	    -20.10345782	      0.00000000
      0.17333333	     -8.04636029	     -6.00030726	    -10.68765720	      1.94426317	      0.95915704	      1.06096562	     38.25113396	     16.21513615	      7.25229815	     44.01353737	      0.76818114	     10.69689876	     -5.36234856	      0.00000000	      9.71166737	     -3.84984881	     -7.92956090	     97.31430960	      1.69845511	    -13.24331961	    -20.50881664	      0.00000000
      0.18000000	     -8.38266239	     -6.40154245	    -11.58946732	      1.94112116	      0.95418251	      1.06179081	     38.30164514	     17.26916988	      7.83878936	     46.23635573	      0.80697664	     12.30226995	     -5.74196946	      0.00000000	     12.24933771	     -5.16976991	     -8.45417351	    100.82521002	      1.75973188	    -12.46450037	    -20.94449417	      0.00000000
      0.18666667	     -8.28776894	     -7.10364225	    -12.29859651	      1.93823789	      0.95071404	      1.06224031	     37.53087682	     18.36708796	      8.28941903	     47.93734743	      0.83666455	     14.12690484	     -5.81927645	      0.00000000	     14.29716347	     -6.73835494	     -8.63148700	    103.98358035	      1.81485585	    -11.85091229	    -21.45877963	      0.00000000
      0.19333333	     -9.10732461	     -6.95202170	    -13.17709056	      1.93448350	      0.94600275	      1.06297557	     37.88012719	     18.91307108	      9.10055973	     49.77543657	      0.86874525	     16.02449290	     -5.81344185	      0.00000000	     17.70090703	     -7.64388356	     -8.85303855	    107.06192381	      1.86858307	    -10.94346856	    -21.44291525	      0.00000000
